<svg id="svg_city_content" width="100%" height="50%" overflow="visible" xmlns="http://www.w3.org/2000/svg" xmlns:se="http://svg-edit.googlecode.com" xmlns:xlink="http://www.w3.org/1999/xlink" viewBox="0 -140 1280 960">
<g style="pointer-events:all" display="inline">
  <title style="pointer-events:inherit">Layer 1</title>
  <path fill="#5395D6" stroke="#5395D6" stroke-width="0" stroke-dasharray="null" stroke-linejoin="null" stroke-linecap="null" style="pointer-events:inherit" d="M0,226 L-1.5,226 L-1.5,215.75 L11.5,215.75 L11.5,134.5 L15.75,134.25 L15.75,114.75 L34,102 L51.25,114.5 L51.75,266.25 L-17,265.75 L-17,226 Z" id="svg_163"/>
  <path fill="#5395D6" stroke="#5395D6" stroke-width="0" stroke-dasharray="null" stroke-linejoin="null" stroke-linecap="null" style="pointer-events:inherit" d="M55.5,197.75 L88.5,197.75 L89.5,266.5 L51.5,265.75 L51.25,201.25 L55.5,201.25 L55.5,197.75 Z" id="svg_164"/>
  <path fill="#5395D6" stroke="#5395D6" stroke-width="0" stroke-dasharray="null" stroke-linejoin="null" stroke-linecap="null" style="pointer-events:inherit" d="M140.25,266 L139.5,190 L158.75,190 L157.25,164.5 L161.75,164.75 L161.75,160 L164.5,159.75 L164.75,162.75 L167.5,162.75 L167.75,165.25 L178,166 L178,142.5 L183,142.5 L183,145.75 L203.25,146 L204,265.75 L140.25,266 Z" id="svg_165"/>
  <path fill="#5395D6" stroke="#5395D6" stroke-width="0" stroke-dasharray="null" stroke-linejoin="null" stroke-linecap="null" style="pointer-events:inherit" d="M273.25,146.75 L286,146.75 L286,142.75 L305,142.5 L305.5,161.75 L310.25,161.25 L310.5,266.25 L271.75,265 L273.25,146.75 Z" id="svg_166"/>
  <path fill="#5395D6" stroke="#5395D6" stroke-width="0" stroke-dasharray="null" stroke-linejoin="null" stroke-linecap="null" style="pointer-events:inherit" d="M310.25,192.25 L321,192.5 L321,178.5 L339,178.5 L339,193.75 L361,194 L360.75,164.5 L364.25,164.5 L364.25,161.75 L371,161.5 L370.75,165 L383.5,164.75 L386.75,267.5 L310.5,266.25 L310.25,192.25 Z" id="svg_167"/>
  <path fill="#5395D6" stroke="#5395D6" stroke-width="0" stroke-dasharray="null" stroke-linejoin="null" stroke-linecap="null" style="pointer-events:inherit" d="M443.75,199 L456.75,199 L456.5,157.25 L471,157.5 L470,267 L442.25,267.5 L443.75,199 Z" id="svg_168"/>
  <path fill="#5395D6" stroke="#5395D6" stroke-width="0" stroke-dasharray="null" stroke-linejoin="null" stroke-linecap="null" style="pointer-events:inherit" d="M498.5,157 L518.5,157 L518.5,164.75 L527.25,164.75 L527,146.25 L538.25,146.25 L538.5,154.5 L555,154.75 L558.25,267 L497.25,266.5 L498.5,157 Z" id="svg_169"/>
  <path fill="#5395D6" stroke="#5395D6" stroke-width="0" stroke-dasharray="null" stroke-linejoin="null" stroke-linecap="null" style="pointer-events:inherit" d="M614.25,146 L642.75,146.75 L642.75,139.75 L657.25,139.75 L657.5,146 L667,145.75 L667.25,151.75 L675.5,151.25 L678.25,267.25 L610.5,267.25 L614.25,146 Z" id="svg_170"/>
  <path fill="#5395D6" stroke="#5395D6" stroke-width="0" stroke-dasharray="null" stroke-linejoin="null" stroke-linecap="null" style="pointer-events:inherit" d="M805.25,134.25 L784.25,134.75 L785.25,266.5 L801.75,264.75 L805.25,134.25 Z" id="svg_171"/>
  <path fill="#5395D6" stroke="#4985c1" stroke-width="0" stroke-dasharray="null" stroke-linejoin="null" stroke-linecap="null" style="pointer-events:inherit" d="M851.75,165 L866.5,164.75 L866.5,148.75 L876.5,148.25 L876.5,151.75 L891,151.75 L893,265.75 L854.75,265.75 L851.75,165 Z" id="svg_172"/>
  <rect fill="#5395D6" stroke="#4985c1" stroke-width="0" stroke-dasharray="null" stroke-linejoin="null" stroke-linecap="null" style="pointer-events:inherit" x="924.5" y="160.5" width="16.25" height="106" id="svg_173"/>
  <rect fill="#5395D6" stroke="#4985c1" stroke-width="0" stroke-dasharray="null" stroke-linejoin="null" stroke-linecap="null" style="pointer-events:inherit" x="992.25" y="113.75" width="26.25" height="152.75" id="svg_174"/>
  <path fill="#5395D6" stroke="#4985c1" stroke-width="0" stroke-dasharray="null" stroke-linejoin="null" stroke-linecap="null" style="pointer-events:inherit" d="M1028.25,176.75 L1033.5,177 L1033.5,173.5 L1042.5,173.5 L1042.5,177.5 L1048.5,177.5 L1050,266.25 L1026.5,266 L1028.25,176.75 Z" id="svg_175"/>
  <path fill="#5395D6" stroke="#4985c1" stroke-width="0" stroke-dasharray="null" stroke-linejoin="null" stroke-linecap="null" style="pointer-events:inherit" d="M1059.75,165.75 L1069,165.75 L1068.75,135.25 L1098.75,136.25 L1101,265 L1058.75,264 L1059.75,165.75 Z" id="svg_176"/>
</g>

<g style="pointer-events:none" display="inline">
  <title style="pointer-events:inherit">Layer 2</title>
  <path fill="#3A7ABA" stroke="#3A7ABA" stroke-width="0" stroke-dasharray="null" stroke-linejoin="null" stroke-linecap="null" style="pointer-events:inherit" d="M13.5,224.5 L27.5,224 L27,200 L31.5,200.25 L31.25,192.75 L49,192 L49.25,200.25 L56.5,199.75 L56.5,197 L65,197 L65.5,266.5 L13.25,265.25 L13.5,224.5 Z" id="svg_177"/>
  <path fill="#3A7ABA" stroke="#3A7ABA" stroke-width="0" stroke-dasharray="null" stroke-linejoin="null" stroke-linecap="null" style="pointer-events:inherit" d="M135.75,211.5 L155.25,211 L156,256.25 L163.5,256 L163.25,218.25 L171.75,217.75 L171.75,224.75 L178,225 L177.75,216.25 L188.75,216.5 L189,224.25 L201.25,224.25 L201.25,265.5 L132.5,264.5 L135.75,211.5 Z" id="svg_178"/>
  <rect fill="#3A7ABA" stroke="#3A7ABA" stroke-width="0" stroke-dasharray="null" stroke-linejoin="null" stroke-linecap="null" style="pointer-events:inherit" x="612.75" y="174.25" width="27.25" height="91.25" id="svg_179"/>
  <path fill="#3A7ABA" stroke="#3A7ABA" stroke-width="0" stroke-dasharray="null" stroke-linejoin="null" stroke-linecap="null" style="pointer-events:inherit" d="M646.25,213.5 L656,213.5 L655.5,159.75 L680.75,159.5 L680.75,162.25 L689.5,162 L689.75,184.5 L696.5,184.25 L696.25,190.25 L721,190.5 L721,266.25 L646.5,266 L646.25,213.5 Z" id="svg_180"/>
  <path fill="#3A7ABA" stroke="#3A7ABA" stroke-width="0" stroke-dasharray="null" stroke-linejoin="null" stroke-linecap="null" style="pointer-events:inherit" d="M818.25,190.5 L840,190.75 L839.75,185 L849,185.25 L849.25,190.5 L864.75,190.25 L870.25,196.75 L870.5,265.25 L795.25,264.5 L795.75,214.75 L817.5,215 L818.25,190.5 Z" id="svg_181"/>
  <line fill="none" stroke="#3A7ABA" stroke-dasharray="null" stroke-linejoin="null" stroke-linecap="null" style="pointer-events:inherit" x1="842" y1="181" x2="842" y2="185" id="svg_182"/>
  <line fill="none" stroke="#3A7ABA" stroke-dasharray="null" stroke-linejoin="null" stroke-linecap="null" style="pointer-events:inherit" x1="845" y1="181" x2="845" y2="185" id="svg_183"/>
  <rect fill="#3d6ea0" stroke="#3A7ABA" stroke-width="0" stroke-dasharray="null" stroke-linejoin="null" stroke-linecap="null" style="pointer-events:inherit" x="1107" y="158" width="0.25" height="0" id="svg_184"/>
  <rect fill="#3A7ABA" stroke="#3A7ABA" stroke-width="0" stroke-dasharray="null" stroke-linejoin="null" stroke-linecap="null" style="pointer-events:inherit" x="1107.25" y="156.75" width="20.25" height="105.5" id="svg_185"/>
  <rect fill="#3A7ABA" stroke="#3A7ABA" stroke-width="0" stroke-dasharray="null" stroke-linejoin="null" stroke-linecap="null" style="pointer-events:inherit" x="1140.5" y="176.25" width="32.5" height="85" id="svg_186"/>
  <path fill="#3A7ABA" stroke="#3A7ABA" stroke-width="0" stroke-dasharray="null" stroke-linejoin="null" stroke-linecap="null" style="pointer-events:inherit" d="M1181,263 L1180.75,173.25 L1184.25,173 L1184.5,181.75 L1192,182 L1192,179.25 L1200.5,179 L1200.75,182 L1209,182.25 L1208.5,176.25 L1213.75,176 L1213.25,153.75 L1220.25,153.75 L1219.5,142.75 L1226.5,142.75 L1226.5,145 L1229,145 L1229,142.25 L1236.5,141.75 L1236.75,149.25 L1247,148.75 L1247,153.25 L1250,153.25 L1250.5,179.25 L1262.75,179.5 L1263.5,191.75 L1268.75,192.25 L1268.5,189.5 L1276.5,189.5 L1278,263.5 L1181,263 Z" id="svg_187"/>
</g>

<g style="pointer-events:none">
  <title style="pointer-events:inherit">Layer 3</title>
  <path fill="#2A66A2" stroke="#2A66A2" stroke-width="0" stroke-dasharray="null" stroke-linejoin="null" stroke-linecap="null" style="pointer-events:inherit" d="M0,254 L-11,253.5 L-12,234 L40,234 L40.5,240.5 L70.5,240.5 L70.5,264 L-21.5,264.5 L-19.5,254 Z" id="svg_205"/>
  <path fill="#2A66A2" stroke="#2A66A2" stroke-width="0" stroke-dasharray="null" stroke-linejoin="null" stroke-linecap="null" style="pointer-events:inherit" d="M65,263 L64,77 L66,83 L69,83 L84,40 L84,33 L88,40 L123,43 L124,38 L139,81 L143,80 L146,265 Z" id="svg_206"/>
  <path fill="#2A66A2" stroke="#2A66A2" stroke-width="0" stroke-dasharray="null" stroke-linejoin="null" stroke-linecap="null" style="pointer-events:inherit" d="M144,244 L151,245 L151,234 L167,234 L168,247 L178,247 L177,227 L203,228 L203,264 L143,264 Z" id="svg_207"/>
  <path fill="#2A66A2" stroke="#2A66A2" stroke-width="0" stroke-dasharray="null" stroke-linejoin="null" stroke-linecap="null" style="pointer-events:inherit" d="M200,263 L198,66.89655172413791 L213,38 L212,24 L216,24 L224,6 L265,26 L277,65 L280,66 L283,264 Z" id="svg_208"/>
  <path fill="#2A66A2" stroke="#2A66A2" stroke-width="0" stroke-dasharray="null" stroke-linejoin="null" stroke-linecap="null" style="pointer-events:inherit" d="M276,232 L288,232.95454545454538 L288,204 L294,204 L294,197 L304,197 L304,193 L315,193 L315,205 L323,205 L323,199 L340,199 L340,204 L350,205 L350,200 L357,200 L357,222 L361,222 L361,219 L370,219 L371,264 L275,264 L276,232 Z" id="svg_210"/>
  <rect fill="#2A66A2" stroke="#2A66A2" stroke-width="0" stroke-dasharray="null" stroke-linejoin="null" stroke-linecap="null" style="pointer-events:inherit" x="369" y="233" width="12" height="30" id="svg_211"/>
  <path fill="#2A66A2" stroke="#2A66A2" stroke-width="0" stroke-dasharray="null" stroke-linejoin="null" stroke-linecap="null" style="pointer-events:inherit" d="M381,263 L381,124 L397,124 L396,117 L436,117 L436,124 L443,124 L446,264 L381,263 Z" id="svg_213"/>
  <path fill="#2A66A2" stroke="#2A66A2" stroke-width="0" stroke-dasharray="null" stroke-linejoin="null" stroke-linecap="null" style="pointer-events:inherit" d="M444,234 L452,234 L452,225 L463,225 L463,156 L469,156 L469,105 L473,105 L473,87 L478,86 L497,72 L502,71 L503,88 L511,88 L512,231 L516,231 L516,244 L521,244 L522,264 L444,264 L444,233 Z" id="svg_214"/>
  <path fill="#2A66A2" stroke="#2A66A2" stroke-width="0" stroke-dasharray="null" stroke-linejoin="null" stroke-linecap="null" style="pointer-events:inherit" d="M520,234 L531,234 L532,114 L535,114 L535,106 L541,106 L541,102 L603,102 L603,108 L625,108 L627,265 L520,265 L520,234 Z" id="svg_215"/>
  <path fill="#2A66A2" stroke="#2A66A2" stroke-width="0" stroke-dasharray="null" stroke-linejoin="null" stroke-linecap="null" style="pointer-events:inherit" d="M626,254 L634,253 L634,244 L640,244 L640,239 L659,239 L658,233 L668,229 L681,234 L682,243 L687,243 L687,238 L693,237 L701,243 L706,243 L706,263 L626,264 L626,254 Z" id="svg_216"/>
  <path fill="#2A66A2" stroke="#2A66A2" stroke-width="0" stroke-dasharray="null" stroke-linejoin="null" stroke-linecap="null" style="pointer-events:inherit" d="M706,253 L715,253 L716,107 L721,107 L721.7948717948718,101 L758,102 L758,108 L766,107 L765,100 L775,90 L795,90 L795,97 L800,97 L800,248 L811,248 L811,256 L814,263 L705,263 L706,253 Z" id="svg_217"/>
  <path fill="#2A66A2" stroke="#2A66A2" stroke-width="0" stroke-dasharray="null" stroke-linejoin="null" stroke-linecap="null" style="pointer-events:inherit" d="M881,262 L881,72 L890,71 L890,60 L908,60 L907,72 L917,72 L916,262 L881,262 Z" id="svg_218"/>
  <path fill="#2A66A2" stroke="#2A66A2" stroke-width="0" stroke-dasharray="null" stroke-linejoin="null" stroke-linecap="null" style="pointer-events:inherit" d="M972,262 L970,73 L975,73 L975,64 L998,64 L1006,74 L1006,262 L972,262 Z" id="svg_219"/>
</g>

<g style="pointer-events:none" display="inline">
  <title style="pointer-events:inherit">Layer 4</title>
  <path fill="#3f74a8" stroke="#3e6fa0" stroke-width="0" stroke-dasharray="null" stroke-linejoin="null" stroke-linecap="null" style="pointer-events:inherit" d="M882,240 L882,230 L895,230 L895,222 L1280,222 L1280,240 L882,240 Z" id="svg_204"/>
  
  <path fill="#6899c9" stroke="#3e6fa0" stroke-width="0" stroke-dasharray="null" stroke-linejoin="null" stroke-linecap="null" style="pointer-events:inherit" d="M1100,215 L1100,210 L1110,210 L1130,195 C1134,202 1134,200 1134,204 C1144,204 1144,204 1144,204 C1156,192 1156,192 1156,192 C1178,204 1178,204 1178,204 C1190,190 1190,190 1190,190 C1205,204 1205,204 1205,204 C1219,191 1219,191 1219,191 C1238,203 1238,203 1238,203 C1259,177 1259,177 1259,177 L1273,218 L1259,210 L1245,218 L1229,210 L1216,218 L1199,210 L1187,218 L1170,209 L1157,217 L1141,209 L1132,217 L1101,214 Z" id="svg_190"/>
  <rect fill="#1C5791" stroke="#1C5791" stroke-width="0" stroke-dasharray="null" stroke-linejoin="null" stroke-linecap="null" style="pointer-events:inherit" x="935" y="201" width="3.5" height="40" id="svg_191"/>
  <rect fill="#1C5791" stroke="#1A5090" stroke-width="0" stroke-dasharray="null" stroke-linejoin="null" stroke-linecap="null" style="pointer-events:inherit" x="965" y="201" width="3.5" height="40" id="svg_193"/>
  <rect fill="#1C5791" stroke="#1A5090" stroke-width="0" stroke-dasharray="null" stroke-linejoin="null" stroke-linecap="null" style="pointer-events:inherit" x="995" y="201" width="3.5" height="40" id="svg_194"/>
  <rect fill="#1C5791" stroke="#1A5090" stroke-width="0" stroke-dasharray="null" stroke-linejoin="null" stroke-linecap="null" style="pointer-events:inherit" x="1025" y="201" width="3.5" height="40" id="svg_195"/>
  <rect fill="#1C5791" stroke="#1A5090" stroke-width="0" stroke-dasharray="null" stroke-linejoin="null" stroke-linecap="null" style="pointer-events:inherit" x="1055" y="201" width="3.5" height="40" id="svg_196"/>
  <rect fill="#1C5791" stroke="#1A5090" stroke-width="0" stroke-dasharray="null" stroke-linejoin="null" stroke-linecap="null" style="pointer-events:inherit" x="1085" y="201" width="3.5" height="40" id="svg_197"/>
  <rect fill="#1C5791" stroke="#1C5791" stroke-width="0" stroke-dasharray="null" stroke-linejoin="null" stroke-linecap="null" style="pointer-events:inherit" x="1115" y="201" width="3.5" height="40" id="svg_198"/>
  <rect fill="#1C5791" stroke="#1C5791" stroke-width="0" stroke-dasharray="null" stroke-linejoin="null" stroke-linecap="null" style="pointer-events:inherit" x="1145" y="201" width="3.5" height="40" id="svg_199"/>
  <rect fill="#1C5791" stroke="#1C5791" stroke-width="0" stroke-dasharray="null" stroke-linejoin="null" stroke-linecap="null" style="pointer-events:inherit" x="1175" y="201" width="3.5" height="40" id="svg_200"/>
  <rect fill="#1C5791" stroke="#1C5791" stroke-width="0" stroke-dasharray="null" stroke-linejoin="null" stroke-linecap="null" style="pointer-events:inherit" x="1205" y="201" width="3.5" height="40" id="svg_201"/>
  <rect fill="#1C5791" stroke="#1C5791" stroke-width="0" stroke-dasharray="null" stroke-linejoin="null" stroke-linecap="null" style="pointer-events:inherit" x="1235" y="201" width="3.5" height="40" id="svg_202"/>
  <rect fill="#1C5791" stroke="#1C5791" stroke-width="0" stroke-dasharray="null" stroke-linejoin="null" stroke-linecap="null" style="pointer-events:inherit" x="1265" y="201" width="3.5" height="40" id="svg_203"/>
  <rect fill="#1C5791" stroke="#1C5791" stroke-width="0" stroke-dasharray="null" stroke-linejoin="null" stroke-linecap="null" style="pointer-events:inherit" x="875" y="239" width="410" height="25" id="svg_188"/>
</g>

<g style="pointer-events:none">
  <title style="pointer-events:inherit">Black Border</title>
  <rect fill="#0C3575" stroke="#0C3575" stroke-width="0" stroke-dasharray="null" stroke-linejoin="null" stroke-linecap="null" style="pointer-events:inherit" x="0" y="255" width="100%" height="16" id="svg_220"/>
</g>
</svg>